<svg xmlns="http://www.w3.org/2000/svg" xmlns:xlink="http://www.w3.org/1999/xlink" width="578" zoomAndPan="magnify" viewBox="0 0 433.5 403.499983" height="538" preserveAspectRatio="xMidYMid meet" version="1.0"><path fill="#184731" d="M 212.753906 10.1875 C 182.042969 12.808594 159.417969 18.953125 135.972656 31.011719 C 104.886719 47.042969 84.4375 64.570312 64.664062 92.136719 C 49.90625 112.660156 38.894531 137.679688 32.902344 164.195312 C 30.054688 176.78125 30.054688 177.230469 33.203125 177.753906 C 34.476562 177.980469 48.855469 177.90625 65.035156 177.679688 C 97.546875 177.082031 95.898438 177.378906 95.898438 172.210938 C 95.898438 170.714844 96.125 167.867188 96.421875 165.917969 L 96.871094 162.398438 L 90.054688 162.921875 C 86.085938 163.222656 83.164062 163.148438 83.164062 162.773438 C 83.164062 162.398438 84.738281 160.601562 86.609375 158.804688 C 90.878906 154.683594 96.648438 147.042969 96.648438 145.542969 C 96.648438 144.644531 95.75 144.496094 91.03125 144.945312 C 87.957031 145.246094 85.410156 145.246094 85.410156 144.945312 C 85.410156 144.644531 87.808594 141.875 90.730469 138.726562 C 96.199219 132.886719 98.519531 129.289062 97.769531 128.089844 C 97.472656 127.640625 95.222656 127.492188 92.304688 127.714844 C 89.53125 127.941406 87.734375 127.867188 88.257812 127.640625 C 89.53125 127.042969 95.148438 118.804688 97.097656 114.609375 L 98.671875 111.238281 L 101.066406 116.03125 C 102.414062 118.652344 105.113281 122.398438 107.132812 124.421875 L 110.730469 128.015625 L 105.785156 128.242188 C 101.742188 128.390625 100.765625 128.691406 100.542969 129.738281 C 100.167969 131.535156 104.289062 137.453125 108.933594 141.875 L 112.753906 145.46875 L 107.359375 145.019531 C 104.0625 144.644531 101.816406 144.796875 101.589844 145.246094 C 100.617188 146.816406 103.613281 151.835938 108.632812 157.003906 C 111.554688 160 113.875 162.625 113.875 162.921875 C 113.875 163.222656 111.03125 163.222656 107.507812 162.921875 L 101.140625 162.398438 L 101.21875 165.621094 C 101.21875 167.417969 101.667969 170.789062 102.117188 173.035156 L 103.015625 177.15625 L 112.003906 177.378906 C 116.949219 177.53125 123.089844 177.378906 125.710938 177.15625 L 130.355469 176.632812 L 130.355469 164.871094 L 125.039062 164.644531 L 119.792969 164.421875 L 122.863281 162.023438 C 124.589844 160.75 126.835938 158.578125 127.808594 157.230469 C 129.683594 154.683594 130.207031 153.109375 128.859375 153.933594 C 128.484375 154.160156 126.910156 154.160156 125.488281 153.859375 L 122.789062 153.410156 L 126.984375 149.066406 C 132.378906 143.371094 132.378906 142.324219 126.984375 142.324219 L 122.863281 142.324219 L 125.863281 138.429688 C 127.585938 136.332031 129.457031 133.632812 130.054688 132.4375 C 131.480469 129.738281 131.929688 129.8125 133.726562 132.734375 C 134.476562 134.082031 136.871094 137.003906 138.894531 139.253906 L 142.714844 143.296875 L 138.820312 142.773438 C 136.574219 142.472656 134.773438 142.625 134.476562 142.996094 C 134.25 143.445312 136.273438 146.070312 138.96875 148.992188 L 143.914062 154.234375 L 139.792969 153.785156 C 137.472656 153.558594 135.597656 153.632812 135.597656 153.933594 C 135.597656 155.207031 139.644531 159.703125 143.316406 162.625 L 147.136719 165.695312 L 141.140625 165.394531 L 135.226562 165.171875 L 135.449219 170.789062 C 135.597656 173.859375 136.046875 176.707031 136.421875 177.15625 C 136.871094 177.605469 144.140625 177.90625 154.925781 177.980469 C 164.664062 177.980469 173.203125 178.277344 173.875 178.578125 C 175.375 179.253906 175.972656 181.648438 175.449219 184.871094 C 175.148438 186.96875 174.777344 187.269531 171.40625 187.941406 C 169.007812 188.464844 145.335938 188.765625 101.589844 188.765625 C 65.1875 188.765625 33.875 188.992188 32.003906 189.214844 L 28.558594 189.738281 L 28.109375 195.28125 C 27.808594 198.355469 27.808594 201.050781 28.109375 201.351562 C 28.332031 201.648438 50.878906 201.949219 78.144531 202.097656 C 123.613281 202.25 127.808594 202.398438 128.707031 203.523438 C 130.054688 205.320312 129.832031 210.113281 128.332031 211.3125 C 127.359375 212.136719 117.996094 212.4375 77.996094 212.8125 C 50.953125 213.109375 28.78125 213.335938 28.707031 213.410156 C 28.558594 213.410156 28.480469 217.457031 28.558594 222.25 C 28.558594 231.015625 29.304688 238.503906 30.128906 239.402344 C 30.429688 239.628906 35.75 239.328125 42.113281 238.652344 C 48.40625 238.054688 57.097656 237.15625 61.441406 236.78125 C 71.03125 235.882812 100.617188 229.589844 114.925781 225.46875 C 126.683594 222.023438 141.667969 215.507812 163.316406 204.273438 C 187.585938 191.761719 194.328125 187.191406 205.710938 175.433594 C 212.828125 168.089844 213.800781 167.792969 212.605469 173.410156 C 211.179688 179.550781 202.792969 191.988281 188.933594 208.464844 C 165.261719 236.480469 136.199219 256.78125 96.046875 273.113281 C 76.347656 281.203125 64.210938 284.945312 46.460938 288.394531 C 20.992188 293.410156 19.941406 293.710938 13.726562 296.78125 C 10.28125 298.429688 7.507812 300.152344 7.507812 300.527344 C 7.507812 301.050781 9.304688 301.125 12.601562 300.828125 C 15.375 300.601562 25.109375 300.152344 34.175781 299.929688 L 50.804688 299.402344 L 52.152344 301.578125 C 52.902344 302.773438 53.574219 303.824219 53.574219 303.972656 C 53.875 304.421875 89.757812 290.863281 98.894531 286.894531 C 112.828125 280.675781 127.058594 272.886719 141.441406 263.375 C 157.398438 252.886719 166.761719 245.320312 179.046875 232.960938 C 196.574219 215.359375 208.035156 199.777344 217.921875 180.152344 C 222.792969 170.414062 225.1875 164.644531 226.535156 159.476562 C 230.058594 145.621094 230.433594 133.261719 227.4375 127.492188 C 225.710938 124.195312 225.863281 123.523438 228.335938 124.046875 C 231.253906 124.796875 235.675781 128.015625 240.769531 133.035156 C 246.761719 139.101562 249.007812 142.625 252.378906 150.9375 C 253.953125 154.90625 255.527344 158.203125 255.824219 158.277344 C 256.199219 158.355469 257.171875 156.40625 257.921875 153.933594 C 259.046875 150.414062 259.269531 147.867188 258.972656 142.171875 C 258.746094 135.882812 258.371094 134.234375 256.351562 130.113281 C 252.304688 121.949219 246.6875 117.605469 233.429688 112.359375 C 227.660156 110.113281 216.425781 107.941406 209.757812 107.792969 C 205.5625 107.714844 206.835938 107.117188 215.75 104.945312 C 219.269531 104.046875 223.988281 102.847656 226.238281 102.25 C 228.484375 101.574219 235.152344 100.601562 240.917969 100 C 246.761719 99.402344 252.378906 98.578125 253.503906 98.203125 C 256.722656 96.929688 262.042969 91.460938 263.390625 87.941406 C 264.214844 85.695312 264.515625 83.371094 264.289062 80.375 C 263.914062 76.40625 263.691406 75.882812 260.394531 72.960938 C 253.277344 66.515625 246.011719 65.917969 234.625 71.011719 C 225.488281 75.058594 223.988281 75.355469 220.019531 73.558594 C 208.335938 68.390625 219.71875 53.183594 240.167969 46.515625 C 263.464844 38.953125 287.585938 43.296875 311.257812 59.476562 C 320.84375 65.992188 334.253906 77.15625 347.210938 89.363281 L 358.523438 100 L 355.976562 100.226562 C 350.882812 100.675781 342.417969 98.128906 333.054688 93.257812 C 326.011719 89.589844 314.851562 84.644531 313.503906 84.644531 C 313.429688 84.644531 317.324219 88.613281 322.117188 93.410156 C 326.914062 98.277344 333.128906 105.09375 335.902344 108.617188 C 344.738281 119.625 351.855469 136.179688 351.183594 144.195312 L 350.957031 147.117188 L 348.1875 144.644531 C 346.613281 143.296875 341.96875 137.453125 337.699219 131.6875 C 329.984375 121.125 322.417969 113.335938 316.726562 110.113281 L 313.652344 108.390625 L 318.074219 116.554688 C 320.46875 121.050781 323.917969 127.714844 325.714844 131.386719 C 332.605469 145.695312 338.746094 153.035156 346.988281 156.929688 C 353.804688 160.152344 351.40625 160.375 343.09375 157.304688 C 336.648438 154.90625 329.910156 151.238281 322.71875 146.144531 C 320.320312 144.496094 318.371094 143.296875 318.371094 143.523438 C 318.371094 143.746094 319.722656 146.59375 321.445312 149.890625 C 325.414062 157.53125 330.433594 162.175781 342.867188 169.738281 C 350.207031 174.160156 354.105469 177.15625 359.273438 182.324219 C 373.054688 196.105469 382.792969 215.433594 386.164062 235.882812 C 388.484375 249.816406 386.539062 267.269531 381.820312 274.910156 L 380.171875 277.53125 L 379.722656 268.917969 C 378.972656 255.359375 374.328125 236.707031 368.484375 224.121094 C 362.195312 210.488281 346.835938 190.265625 335.003906 180.078125 C 325.039062 171.539062 312.605469 163.148438 305.414062 160.152344 C 304.289062 159.628906 304.140625 159.851562 304.589844 161.273438 C 305.488281 164.195312 309.085938 168.839844 316.648438 176.855469 C 327.363281 188.242188 331.03125 194.160156 334.328125 205.246094 C 337.324219 215.207031 338.074219 220.527344 338.074219 231.835938 C 337.921875 259.628906 330.808594 286.070312 316.351562 311.988281 C 302.34375 337.082031 277.25 364.648438 252.453125 382.027344 C 245.714844 386.746094 237.773438 391.839844 234.851562 393.261719 C 225.1875 398.132812 229.308594 400.605469 245.414062 399.703125 C 249.609375 399.480469 254.027344 398.878906 255.152344 398.507812 C 257.699219 397.53125 272.53125 386.371094 282.117188 378.132812 C 297.847656 364.722656 316.351562 342.851562 325.414062 326.96875 C 335.453125 309.367188 340.394531 298.207031 344.140625 284.871094 C 345.191406 281.125 346.386719 277.15625 346.835938 276.109375 C 348.261719 272.289062 351.480469 252.738281 352.15625 243.148438 C 352.753906 235.285156 352.679688 231.988281 351.707031 224.945312 C 350.957031 220.226562 350.582031 216.183594 350.808594 215.957031 C 351.40625 215.433594 356.425781 223.375 358.898438 228.839844 C 365.265625 242.847656 365.5625 265.546875 359.648438 289.214844 C 356.574219 301.726562 353.355469 310.492188 347.136719 323.222656 C 337.023438 344.199219 328.710938 355.433594 309.832031 374.085938 C 293.578125 390.191406 293.578125 389.816406 309.382812 384.574219 C 324.964844 379.40625 338.222656 371.839844 354.328125 358.878906 C 369.382812 346.671875 379.796875 335.507812 391.707031 318.730469 C 409.910156 293.1875 420.472656 266.894531 425.117188 236.183594 C 427.136719 222.847656 428.035156 201.277344 427.136719 190.5625 C 422.71875 141.875 398.597656 92.433594 363.691406 60.601562 C 354.476562 52.210938 348.1875 47.566406 336.726562 40.824219 C 308.859375 24.34375 284.738281 15.730469 254.328125 11.609375 C 245.863281 10.410156 220.167969 9.589844 212.753906 10.1875 Z M 204.964844 74.90625 C 205.414062 78.203125 205.5625 80.898438 205.488281 80.898438 C 205.339844 80.898438 204.4375 80.449219 203.539062 79.851562 C 201.441406 78.503906 197.621094 77.828125 196.425781 78.578125 C 195.074219 79.402344 198.222656 83.746094 201.890625 86.21875 C 204.738281 88.015625 215.300781 91.910156 222.34375 93.632812 C 224.066406 94.082031 225.488281 94.757812 225.488281 95.132812 C 225.488281 95.507812 223.539062 96.03125 221.21875 96.253906 C 218.820312 96.554688 212.679688 97.605469 207.511719 98.503906 C 202.339844 99.476562 195.449219 100.675781 192.152344 101.125 C 184.515625 102.171875 181.515625 103.148438 178.445312 105.394531 C 175.074219 107.941406 173.652344 111.085938 173.128906 117.53125 L 172.679688 123.074219 L 170.429688 121.125 C 165.863281 117.304688 161.816406 107.492188 161.816406 100.226562 C 161.816406 88.242188 167.433594 78.878906 177.773438 73.785156 C 183.464844 71.011719 187.433594 70.261719 202.714844 69.0625 C 204.140625 68.914062 204.363281 69.4375 204.964844 74.90625 Z M 247.886719 79.101562 C 250.730469 81.5 250.882812 84.046875 248.335938 86.59375 C 244.363281 90.5625 236.5 87.191406 237.773438 82.097656 C 238.296875 80.074219 242.117188 77.15625 244.363281 77.15625 C 245.039062 77.15625 246.613281 78.054688 247.886719 79.101562 Z M 69.757812 143.671875 C 71.105469 145.621094 73.203125 148.316406 74.398438 149.589844 C 75.671875 150.9375 76.421875 152.0625 75.972656 152.136719 C 75.597656 152.136719 73.726562 152.136719 71.777344 152.0625 C 69.53125 151.988281 68.183594 152.285156 68.183594 152.8125 C 68.183594 154.457031 70.429688 157.753906 73.726562 161.050781 C 75.597656 162.847656 77.171875 164.644531 77.171875 164.945312 C 77.171875 165.246094 74.625 165.320312 71.554688 165.019531 L 65.9375 164.570312 L 65.785156 167.492188 L 65.710938 170.414062 L 65.410156 167.492188 L 65.113281 164.644531 L 60.242188 164.945312 C 55.824219 165.246094 53.949219 164.570312 56.496094 163.597656 C 58.296875 162.921875 65.1875 154.234375 65.1875 152.660156 C 65.1875 151.386719 64.738281 151.238281 61.441406 151.386719 C 59.417969 151.539062 57.472656 151.386719 57.246094 151.085938 C 56.945312 150.863281 57.921875 149.289062 59.417969 147.640625 C 60.917969 145.992188 63.015625 142.847656 64.136719 140.675781 C 66.011719 137.003906 66.160156 136.855469 66.757812 138.429688 C 67.132812 139.402344 68.484375 141.722656 69.757812 143.671875 Z M 69.757812 143.671875 " fill-opacity="1" fill-rule="nonzero"/><path fill="#184731" d="M 241.667969 166.070312 C 241.367188 166.742188 240.84375 171.910156 240.394531 177.457031 C 239.570312 188.765625 237.398438 198.804688 232.902344 211.761719 C 224.964844 234.683594 208.933594 258.578125 185.789062 281.726562 C 161.816406 305.769531 134.550781 324.648438 73.425781 359.554688 C 59.269531 367.644531 44.585938 377.382812 40.992188 380.976562 C 37.246094 384.722656 33.425781 390.640625 31.476562 395.433594 C 30.65625 397.53125 29.980469 399.554688 29.980469 399.929688 C 29.980469 400.230469 31.554688 398.957031 33.574219 397.15625 C 39.644531 391.464844 52.527344 382.175781 58.070312 379.480469 C 60.917969 378.054688 70.054688 374.835938 78.296875 372.289062 C 86.535156 369.742188 96.347656 366.519531 100.019531 365.171875 C 103.765625 363.75 114.550781 360.078125 123.988281 356.933594 C 152.230469 347.417969 167.960938 339.703125 193.277344 322.851562 C 206.460938 314.011719 211.554688 309.890625 224.890625 297.230469 C 236.574219 286.296875 241.816406 280.152344 248.933594 269.214844 C 258.445312 254.683594 263.992188 241.875 267.886719 225.019531 C 269.757812 217.007812 269.984375 214.683594 269.984375 201.875 C 270.058594 192.136719 269.757812 186.59375 269.082031 184.273438 C 267.886719 180.152344 261.445312 170.414062 259.871094 170.414062 C 258.746094 170.414062 258.746094 170.039062 259.644531 188.839844 C 260.171875 201.125 259.121094 208.992188 254.851562 224.046875 C 248.035156 247.71875 236.347656 266.894531 215.824219 287.867188 C 198.222656 305.847656 172.753906 323.148438 150.582031 332.136719 C 143.839844 334.910156 143.613281 334.609375 149.53125 330.492188 C 175.675781 312.363281 200.46875 289.515625 215.898438 269.066406 C 228.035156 253.113281 235.226562 240.453125 240.320312 226.59375 C 244.964844 213.933594 246.910156 205.019531 247.734375 192.136719 C 248.183594 184.046875 247.4375 177.828125 244.890625 169.664062 C 243.390625 164.722656 242.492188 163.746094 241.667969 166.070312 Z M 241.667969 166.070312 " fill-opacity="1" fill-rule="nonzero"/><path fill="#184731" d="M 286.089844 172.734375 C 287.511719 175.132812 289.535156 178.355469 290.65625 179.777344 C 293.878906 183.898438 301.894531 196.78125 303.464844 200.453125 C 307.4375 209.738281 309.160156 224.648438 307.886719 237.679688 C 304.738281 270.191406 286.835938 304.871094 258.222656 334.011719 C 242.566406 349.964844 214.777344 370.339844 198.894531 377.605469 C 196.050781 378.878906 190.804688 381.277344 187.285156 382.925781 C 183.765625 384.574219 178.820312 386.746094 176.273438 387.792969 C 167.808594 391.164062 170.582031 393.039062 186.085938 394.535156 C 190.132812 394.910156 191.78125 394.609375 198.894531 392.140625 C 207.660156 389.144531 220.320312 383.074219 228.410156 378.054688 C 246.6875 366.671875 272.230469 343.675781 284.816406 327.34375 C 304.289062 301.949219 315.078125 279.777344 320.320312 253.933594 C 324.441406 233.859375 323.917969 219.703125 318.449219 204.121094 C 315.078125 194.683594 305.113281 182.921875 292.753906 173.933594 C 283.691406 167.417969 283.089844 167.269531 286.089844 172.734375 Z M 286.089844 172.734375 " fill-opacity="1" fill-rule="nonzero"/><path fill="#184731" d="M 228.710938 175.808594 C 226.984375 177.304688 225.339844 180.375 222.867188 186.519531 C 217.699219 199.328125 208.859375 214.832031 201.59375 223.972656 C 196.875 229.890625 181.890625 246.667969 177.621094 250.863281 C 156.722656 271.238281 131.929688 288.542969 101.890625 303.75 C 83.3125 313.113281 78.296875 315.210938 62.191406 320.601562 C 44.886719 326.371094 30.953125 331.613281 28.109375 333.335938 C 25.5625 334.910156 17.019531 343.898438 17.621094 344.421875 C 17.769531 344.574219 18.519531 344.347656 19.269531 343.972656 C 20.019531 343.523438 26.757812 341.5 34.101562 339.480469 C 41.515625 337.457031 51.554688 334.535156 56.421875 333.039062 C 68.03125 329.515625 70.28125 329.515625 73.726562 333.113281 L 76.273438 335.882812 L 79.269531 333.9375 C 80.84375 332.8125 85.335938 330.414062 89.230469 328.46875 C 105.636719 320.226562 126.085938 308.019531 142.339844 296.78125 C 168.707031 278.578125 197.023438 250.9375 211.480469 229.367188 C 222.492188 212.960938 232.003906 188.167969 231.332031 177.457031 L 231.105469 173.710938 Z M 228.710938 175.808594 " fill-opacity="1" fill-rule="nonzero"/><path fill="#184731" d="M 276.648438 191.164062 C 276.875 193.335938 277.996094 197.828125 279.121094 201.125 C 280.917969 206.445312 281.21875 208.242188 281.21875 216.480469 C 281.21875 241.5 270.058594 269.367188 249.984375 294.386719 C 242.191406 304.125 227.0625 318.878906 215.898438 327.570312 C 208.484375 333.410156 191.179688 344.949219 181.144531 350.789062 C 168.933594 357.90625 149.90625 366.445312 134.851562 371.539062 C 125.488281 374.761719 125.488281 374.6875 127.210938 376.257812 C 128.933594 377.832031 141.140625 382.027344 143.914062 382.027344 C 146.609375 382.027344 158.519531 377.90625 169.683594 373.113281 C 194.699219 362.324219 223.164062 343.226562 244.589844 322.699219 C 261.445312 306.59375 277.398438 284.046875 285.113281 265.546875 C 291.480469 250.113281 294.402344 236.929688 294.402344 223.523438 C 294.402344 216.632812 294.101562 214.011719 292.53125 209.214844 C 289.457031 199.476562 281.070312 187.269531 277.398438 187.269531 C 276.425781 187.269531 276.273438 187.941406 276.648438 191.164062 Z M 276.648438 191.164062 " fill-opacity="1" fill-rule="nonzero"/><path fill="#184731" d="M 174.476562 205.996094 C 172.976562 206.820312 168.410156 209.738281 164.363281 212.511719 C 142.265625 227.71875 116.273438 239.476562 87.660156 247.117188 C 77.171875 249.964844 55.824219 253.859375 44.660156 254.984375 C 38.519531 255.65625 33.351562 256.332031 33.203125 256.480469 C 32.75 256.855469 36.722656 271.3125 37.472656 272.136719 C 38.070312 272.8125 63.761719 267.570312 75.300781 264.347656 C 111.777344 254.234375 135.972656 243 159.417969 225.320312 C 168.859375 218.128906 179.046875 208.242188 179.046875 206.144531 C 179.046875 204.121094 177.996094 204.121094 174.476562 205.996094 Z M 174.476562 205.996094 " fill-opacity="1" fill-rule="nonzero"/></svg>